<?xml version="1.0" encoding="UTF-8"?>
<svg id="Livello_2" data-name="Livello 2" xmlns="http://www.w3.org/2000/svg" viewBox="0 0 86.94 89.87">
  <defs>
    <style>
      .cls-1 {
        fill: #85b24f;
      }

      .cls-2 {
        fill: #ea567e;
      }
    </style>
  </defs>
  <g id="Livello_1-2" data-name="Livello 1">
    <g>
      <path class="cls-1" d="M53.94,89.87c2.59-19.18-1.05-38.25-6.99-56.48-2.31-6.95-6.17-14.7-11.9-19.93C25.8,4.63,11.91.76,0,2.8c6.64,2.63,12.61,5.35,18.21,9.36,3.43,2.48,6.48,5.31,9.14,8.56,3.98,4.96,6.08,10.31,8.26,16.59,5.91,17.25,11.71,35.4,18.33,52.57h0Z"/>
      <path class="cls-2" d="M6.15,84.73c4.23-18.89,14.25-35.51,26.15-50.55,4.58-5.72,10.89-11.65,18.08-14.57,11.73-5.07,26.1-3.89,36.56,2.16-7.14.16-13.68.64-20.33,2.46-4.08,1.14-7.92,2.73-11.54,4.86-5.46,3.28-9.28,7.57-13.5,12.69-11.53,14.13-23.26,29.14-35.42,42.94h0Z"/>
      <circle class="cls-1" cx="48.54" cy="8.72" r="8.72"/>
    </g>
  </g>
</svg>